<svg xmlns="http://www.w3.org/2000/svg" version="1.1" viewBox="-5.0 -10.0 110.0 135.0">
 <path d="m61.062 79.184c-2.4531 1.2539-5.0469 2.2578-7.7422 2.9883-3.3164 0.89453-6.7969 1.3789-10.379 1.3945h-0.17188c-11.137 0-21.223-4.5156-28.523-11.816-7.3008-7.3008-11.816-17.387-11.816-28.523 0-11.137 4.5156-21.223 11.816-28.523 7.3008-7.3008 17.387-11.816 28.523-11.816s21.223 4.5156 28.523 11.816 11.816 17.387 11.816 28.523c0 3.4258-0.42969 6.7617-1.2383 9.9453l-0.023438 0.089844c-0.64062 2.4922-1.5117 4.8984-2.5977 7.1875l17.02 6.4492c0.51953 0.19922 0.95703 0.60937 1.1641 1.1719 0.38281 1.0312-0.14062 2.1797-1.1719 2.5625l-10.305 3.8438 8.9453 8.9453c0.35547 0.36719 0.57812 0.86328 0.57812 1.4141 0 1.1016-0.89453 1.9922-1.9922 1.9922l-6.1875 0.011719-0.011719 6.0273c0.042969 0.56641-0.14844 1.1445-0.57812 1.5742-0.78125 0.78125-2.0469 0.78125-2.8281 0l-8.9453-8.9453-3.8125 10.219c-0.17969 0.55859-0.60547 1.0352-1.1953 1.2578-1.0312 0.38672-2.1836-0.13281-2.5703-1.1641l-6.3008-16.629zm14.449-20.148c1.0352-2.1406 1.8672-4.4023 2.4688-6.7617l0.019531-0.082032c0.57031-2.2422 0.92969-4.5703 1.0586-6.9609h-17.793c-0.03125 1.3164-0.089844 2.6367-0.17578 3.9492-0.09375 1.4375-0.22266 2.8555-0.38672 4.25l14.805 5.6094zm-18.91-2.8984c4.2031 11.102 8.4141 22.203 12.621 33.305l3.0781-8.2461c0.38281-1.0312 1.5312-1.5547 2.5625-1.1719 0.27734 0.10156 0.51562 0.26172 0.71484 0.45703l7.75 7.7383 0.007813-3.3633c0-1.1016 0.89453-1.9922 1.9922-1.9922l3.3633-0.007812-7.7461-7.7422c-0.78125-0.78125-0.78125-2.0469 0-2.8281 0.25-0.25 0.55469-0.42188 0.87109-0.51172l8.0938-3.0195c-11.102-4.207-22.203-8.418-33.305-12.617zm0.25391-4.1719c0.10156-0.99609 0.1875-2.0078 0.25391-3.0391 0.078125-1.1953 0.13281-2.4297 0.16016-3.6992h-7.6367c-1.1055 0-2-0.89453-2-2 0-1.1055 0.89453-2 2-2h7.6367c-0.125-5.6133-0.78125-10.883-1.8555-15.551h-25.277c-1.0703 4.668-1.7266 9.9375-1.8555 15.551h7.6367c1.1055 0 2 0.89453 2 2 0 1.1055-0.89453 2-2 2h-7.6367c0.125 5.6133 0.78516 10.887 1.8555 15.555h23.953l-2.7969-7.3789c-0.16406-0.4375-0.17578-0.93359 0-1.4062 0.38672-1.0312 1.5391-1.5508 2.5703-1.1641l2.9844 1.1328zm0.32031 16.949c-1.3047 3.5117-2.875 6.5156-4.6406 8.8555-0.15625 0.20703-0.3125 0.40625-0.47266 0.60156l0.23047-0.0625c2.582-0.69922 5.043-1.6719 7.3516-2.8789zm4.0938-27.688h17.789c-0.30469-5.6172-1.8867-10.898-4.457-15.551h-15.098c1.0195 4.7344 1.6406 9.9961 1.7617 15.551zm-35.227-15.551h-15.094c-2.5703 4.6523-4.1523 9.9336-4.457 15.551h17.789c0.12109-5.5547 0.74219-10.82 1.7617-15.551zm-1.7617 19.551h-17.789c0.30469 5.6172 1.8867 10.898 4.457 15.555h15.094c-1.0195-4.7344-1.6406-9.9961-1.7617-15.555zm30.07 19.555h-23.148c0.51953 1.7031 1.1016 3.2969 1.7344 4.7656 2.6641 6.1875 6.1562 10.02 9.8398 10.02 2.2969 0 4.5469-1.5273 6.5664-4.2031 1.9688-2.6016 3.6797-6.2266 5.0078-10.578zm-27.312 0h-13.52c1.0859 1.4688 2.2734 2.8555 3.5625 4.1406 4.4727 4.4727 10.113 7.7852 16.422 9.4453-1.5859-1.9531-3.0156-4.3945-4.2422-7.2461-0.83203-1.9297-1.5781-4.0547-2.2227-6.3438zm0-43.109c0.64844-2.2891 1.3945-4.4141 2.2266-6.3438 1.2266-2.8477 2.6523-5.293 4.2422-7.2422-6.3086 1.6602-11.949 4.9727-16.422 9.4453-1.2891 1.2891-2.4805 2.6719-3.5625 4.1406h13.52zm25.012-13.59c1.5859 1.9492 3.0156 4.3945 4.2422 7.2422 0.83203 1.9297 1.5781 4.0586 2.2266 6.3438h13.52c-1.0859-1.4688-2.2734-2.8555-3.5625-4.1406-4.4766-4.4727-10.113-7.7852-16.422-9.4453zm2.3008 13.59c-0.51953-1.7031-1.1016-3.2969-1.7344-4.7656-2.6641-6.1875-6.1562-10.016-9.8398-10.016s-7.1758 3.8281-9.8398 10.016c-0.63281 1.4688-1.2148 3.0625-1.7344 4.7656zm-11.867 23.555c-1.1055 0-2-0.89453-2-2 0-1.1055 0.89453-2 2-2h0.58594c1.1055 0 2 0.89453 2 2 0 1.1055-0.89453 2-2 2z"/>
<text x="0.0" y="117.5" font-size="5.0" font-weight="bold" font-family="Arbeit Regular, Helvetica, Arial-Unicode, Arial, Sans-serif" fill="#000000">Created by White Snow</text><text x="0.0" y="122.5" font-size="5.0" font-weight="bold" font-family="Arbeit Regular, Helvetica, Arial-Unicode, Arial, Sans-serif" fill="#000000">from Noun Project</text></svg>