<svg xmlns="http://www.w3.org/2000/svg" version="1.1" viewBox="-5.0 -10.0 110.0 135.0">
 <path d="m35.945 33.855c0 1.1055-0.89453 2-2 2-1.1055 0-2-0.89453-2-2v-0.58594c0-1.1055 0.89453-2 2-2 1.1055 0 2 0.89453 2 2zm-4 33.535h-8.2227c-1.1055 0-2-0.89453-2-2s0.89453-2 2-2h8.2227v-8.4844h-8.2227c-1.1055 0-2-0.89453-2-2s0.89453-2 2-2h8.2227v-8.4844h-8.2227c-1.1055 0-2-0.89453-2-2s0.89453-2 2-2h10.223c1.1055 0 2 0.89453 2 2v53.535h50.664v-53.074h-17.219c-1.1055 0-2-0.89453-2-2v-17.219h-31.441v5.043c0 1.1055-0.89453 2-2 2s-2-0.89453-2-2v-7.0469c0-1.1055 0.89453-2 2-2h30.113v-11.613h-50.664v72.293h18.551v-10.953zm0 14.953h-20.551c-1.1055 0-2-0.89453-2-2v-76.297c0-1.1055 0.89453-2 2-2h54.664c1.1055 0 2 0.89453 2 2v13.617h1.3281c0.51172 0 1.0234 0.19531 1.4141 0.58594l19.176 19.176c0.38672 0.36328 0.62891 0.88281 0.62891 1.457v57.074c0 1.1055-0.89453 2-2 2h-54.664c-1.1055 0-2-0.89453-2-2v-13.617zm44.336-2.6289c1.1055 0 2 0.89453 2 2 0 1.1055-0.89453 2-2 2h-30.008c-1.1055 0-2-0.89453-2-2 0-1.1055 0.89453-2 2-2zm0-24.973c1.1055 0 2 0.89453 2 2 0 1.1055-0.89453 2-2 2h-30.008c-1.1055 0-2-0.89453-2-2 0-1.1055 0.89453-2 2-2zm0 12.484c1.1055 0 2 0.89453 2 2 0 1.1055-0.89453 2-2 2h-30.008c-1.1055 0-2-0.89453-2-2 0-1.1055 0.89453-2 2-2zm-4.8906-42.738v12.391h12.391z"/>
<text x="0.0" y="117.5" font-size="5.0" font-weight="bold" font-family="Arbeit Regular, Helvetica, Arial-Unicode, Arial, Sans-serif" fill="#000000">Created by White Snow</text><text x="0.0" y="122.5" font-size="5.0" font-weight="bold" font-family="Arbeit Regular, Helvetica, Arial-Unicode, Arial, Sans-serif" fill="#000000">from Noun Project</text></svg>